<svg width="17" height="17" viewBox="0 0 17 17" fill="none" xmlns="http://www.w3.org/2000/svg">
<path d="M0.709704 0.887101L0.792893 0.792893C1.15338 0.432409 1.72061 0.40468 2.1129 0.709704L2.20711 0.792893L8.5 7.085L14.7929 0.792893C15.1834 0.402369 15.8166 0.402369 16.2071 0.792893C16.5976 1.18342 16.5976 1.81658 16.2071 2.20711L9.915 8.5L16.2071 14.7929C16.5676 15.1534 16.5953 15.7206 16.2903 16.1129L16.2071 16.2071C15.8466 16.5676 15.2794 16.5953 14.8871 16.2903L14.7929 16.2071L8.5 9.915L2.20711 16.2071C1.81658 16.5976 1.18342 16.5976 0.792893 16.2071C0.402369 15.8166 0.402369 15.1834 0.792893 14.7929L7.085 8.5L0.792893 2.20711C0.432409 1.84662 0.40468 1.27939 0.709704 0.887101L0.792893 0.792893L0.709704 0.887101Z" fill="#464646"/>
</svg>
